name Walk6.mot
datacolumns 19
datarows 12
range 2.77500000 2.78600000
endheader

                time	   L_ground_force_vx	   L_ground_force_vy	   L_ground_force_vz	   L_ground_force_px	   L_ground_force_py	   L_ground_force_pz	   R_ground_force_vx	   R_ground_force_vy	   R_ground_force_vz	   R_ground_force_px	   R_ground_force_py	   R_ground_force_pz	   L_ground_torque_x	   L_ground_torque_y	   L_ground_torque_z	   R_ground_torque_x	   R_ground_torque_y	   R_ground_torque_z	
          2.77500000	          0.00000000	          0.00000000	          0.00000000	          0.00000000	          0.00000000	          0.00000000	        -20.58596601	        666.60742285	        -45.81108639	          0.39296790	          0.00000000	          0.10527060	          0.00000000	          0.00000000	          0.00000000	          0.00000000	          4.26390339	          0.00000000	
          2.77600000	          0.00000000	          0.00000000	          0.00000000	          0.00000000	          0.00000000	          0.00000000	        -20.30802335	        665.69156952	        -45.62475294	          0.39334998	          0.00000000	          0.10537956	          0.00000000	          0.00000000	          0.00000000	          0.00000000	          4.20494629	          0.00000000	
          2.77700000	          0.00000000	          0.00000000	          0.00000000	          0.00000000	          0.00000000	          0.00000000	        -20.06055742	        664.77885686	        -45.41229955	          0.39373915	          0.00000000	          0.10547082	          0.00000000	          0.00000000	          0.00000000	          0.00000000	          4.15254208	          0.00000000	
          2.77800000	          0.00000000	          0.00000000	          0.00000000	          0.00000000	          0.00000000	          0.00000000	        -19.84576153	        663.91030267	        -45.16003155	          0.39414453	          0.00000000	          0.10551312	          0.00000000	          0.00000000	          0.00000000	          0.00000000	          4.09832994	          0.00000000	
          2.77900000	          0.00000000	          0.00000000	          0.00000000	          0.00000000	          0.00000000	          0.00000000	        -19.65031999	        663.09259259	        -44.86849859	          0.39458461	          0.00000000	          0.10549733	          0.00000000	          0.00000000	          0.00000000	          0.00000000	          4.03894538	          0.00000000	
          2.78000000	          0.00000000	          0.00000000	          0.00000000	          0.00000000	          0.00000000	          0.00000000	        -19.45841272	        662.29207015	        -44.54986116	          0.39506143	          0.00000000	          0.10542801	          0.00000000	          0.00000000	          0.00000000	          0.00000000	          3.97675156	          0.00000000	
          2.78100000	          0.00000000	          0.00000000	          0.00000000	          0.00000000	          0.00000000	          0.00000000	        -19.26426987	        661.47734252	        -44.21059095	          0.39556288	          0.00000000	          0.10532074	          0.00000000	          0.00000000	          0.00000000	          0.00000000	          3.91501537	          0.00000000	
          2.78200000	          0.00000000	          0.00000000	          0.00000000	          0.00000000	          0.00000000	          0.00000000	        -19.06813414	        660.64732103	        -43.84448066	          0.39607424	          0.00000000	          0.10520448	          0.00000000	          0.00000000	          0.00000000	          0.00000000	          3.85538020	          0.00000000	
          2.78300000	          0.00000000	          0.00000000	          0.00000000	          0.00000000	          0.00000000	          0.00000000	        -18.86431732	        659.82074985	        -43.44549362	          0.39657585	          0.00000000	          0.10510609	          0.00000000	          0.00000000	          0.00000000	          0.00000000	          3.79849655	          0.00000000	
          2.78400000	          0.00000000	          0.00000000	          0.00000000	          0.00000000	          0.00000000	          0.00000000	        -18.64018624	        659.01971376	        -43.01710500	          0.39705038	          0.00000000	          0.10503830	          0.00000000	          0.00000000	          0.00000000	          0.00000000	          3.74425346	          0.00000000	
          2.78500000	          0.00000000	          0.00000000	          0.00000000	          0.00000000	          0.00000000	          0.00000000	        -18.38717108	        658.26618954	        -42.56740645	          0.39749989	          0.00000000	          0.10500830	          0.00000000	          0.00000000	          0.00000000	          0.00000000	          3.69151263	          0.00000000	
          2.78600000	          0.00000000	          0.00000000	          0.00000000	          0.00000000	          0.00000000	          0.00000000	        -18.11134153	        657.58804994	        -42.09939089	          0.39794724	          0.00000000	          0.10502172	          0.00000000	          0.00000000	          0.00000000	          0.00000000	          3.63882401	          0.00000000	
